PathFileType	4	(X/Y/Z)	/Users/mathieubourgeois/Desktop/Analyse/Traitement/Sujet_03/Data/Transformed_Sujet_03_velo_100.trc
DataRate	CameraRate	NumFrames	NumMarkers	Units	OrigDataRate	OrigDataStartFrame	OrigNumFrames
120.000000	120.000000	4	36	mm	120.000000	1653	1890
Frame#	Time	RFHD			LFHD			RBHD			LBHD			C7			CLAV			RSHO			LSHO			STRN			T10			RBWT			LBWT			RFWT			LFWT			RKNI			LKNI			RKNE			LKNE			LANI			RANI			LANE			RANE			LTOE			RTOE			LHEE			RHEE			RHUM			LHUM			RRAD			LRAD			RWRA			RWRB			LWRA			LWRB			LCAR			RCAR			
		X1	Y1	Z1	X2	Y2	Z2	X3	Y3	Z3	X4	Y4	Z4	X5	Y5	Z5	X6	Y6	Z6	X7	Y7	Z7	X8	Y8	Z8	X9	Y9	Z9	X10	Y10	Z10	X11	Y11	Z11	X12	Y12	Z12	X13	Y13	Z13	X14	Y14	Z14	X15	Y15	Z15	X16	Y16	Z16	X17	Y17	Z17	X18	Y18	Z18	X19	Y19	Z19	X20	Y20	Z20	X21	Y21	Z21	X22	Y22	Z22	X23	Y23	Z23	X24	Y24	Z24	X25	Y25	Z25	X26	Y26	Z26	X27	Y27	Z27	X28	Y28	Z28	X29	Y29	Z29	X30	Y30	Z30	X31	Y31	Z31	X32	Y32	Z32	X33	Y33	Z33	X34	Y34	Z34	X35	Y35	Z35	X36	Y36	Z36	

1654	13.775	134.5780334472656	1550.075439453125	94.6797332763671	120.8956451416016	1543.894165039062	-58.82333755493172	27.4787082672119	1626.680297851562	104.4916534423827	4.795772075653082	1637.105712890625	-42.96538162231455	-119.5202713012695	1545.147827148438	30.32649993896473	-84.33762359619141	1388.072387695312	31.5678825378417	-57.75915145874026	1483.931396484375	199.346939086914	-78.97514343261717	1506.833618164062	-144.8287048339845	-191.0537567138672	1255.279052734375	33.71672821044912	-338.8796691894531	1452.74853515625	30.85303115844713	-538.379638671875	1263.951171875	115.0215225219725	-545.6346435546875	1260.068237304688	-8.66299152374282	-385.0942077636719	1199.306518554688	174.9076385498045	-393.9103088378906	1181.270385742188	-72.45143127441418	-115.4444046020508	760.4566040039062	128.9376831054687	-111.0795211791992	791.0524291992188	-65.05356597900396	-131.1844787597657	808.7149658203125	242.255142211914	-110.9470596313476	835.8007202148438	-174.4862670898438	-407.233154296875	560.8038330078125	-65.18457794189462	-147.98681640625	389.119873046875	129.3472900390624	-432.1938171386719	541.7772827148438	-150.8394470214845	-172.5727081298828	367.0004577636719	215.7857360839843	-304.3204345703125	396.6076049804688	-94.21758270263679	14.03329563140867	268.031005859375	146.6728515625	-504.9688110351562	562.63671875	-112.2290496826173	-243.263412475586	345.2367248535156	173.9234161376953	6.474728107452363	1185.581665039062	236.896270751953	1.856676936149616	1195.115478515625	-152.8646850585938	59.78758621215817	1211.123046875	292.8835144042968	50.31867218017581	1226.279174804688	-213.5617980957032	266.6611938476562	1043.555541992188	212.5470123291015	250.0216064453125	1030.267456054688	292.8025817871094	244.7098999023438	1065.54443359375	-130.1592712402344	218.4953002929688	1039.74609375	-203.0914306640625	314.0344543457031	1027.900634765625	-227.3252105712891	352.8780822753906	1020.872253417969	300.7074890136719	
1655	13.78333333333333	134.6994476318359	1550.587768554688	93.48943328857413	121.0874938964844	1544.2841796875	-59.96615219116219	27.44004821777342	1627.031494140625	103.208999633789	4.842402458190923	1637.383178710938	-44.21278762817393	-119.3612289428711	1545.325439453125	29.11960220336903	-84.14005279541016	1388.247924804688	30.39062309265127	-57.43613815307619	1484.020141601562	198.1967010498046	-79.01166534423827	1506.756713867188	-146.1476135253907	-190.9015502929688	1255.35693359375	32.57377243041982	-338.6439514160156	1452.734985351562	30.5028209686278	-537.5897216796875	1263.757446289062	115.7073898315428	-545.3990478515625	1260.197387695312	-8.055108070373679	-384.1912841796875	1198.646606445312	174.7118072509764	-393.77978515625	1181.668212890625	-72.60160064697277	-122.7757415771485	749.2363891601562	128.1032562255859	-101.2566986083984	803.45556640625	-66.59179687500006	-139.9508209228516	797.5469970703125	241.609893798828	-104.190803527832	846.27880859375	-175.3008117675782	-401.3209838867188	574.4522094726562	-64.6661682128907	-153.20361328125	376.8717651367188	128.6880645751953	-426.3197021484375	555.306396484375	-150.2749938964845	-178.4458465576172	355.3628234863281	215.2713165283203	-297.6315307617188	411.6260375976562	-93.48525238037116	7.438288211822492	252.4873962402344	146.321044921875	-499.4039611816406	575.9445190429688	-111.6754074096681	-248.134521484375	333.9471740722656	172.1635742187499	6.590996265411348	1185.647827148438	236.3478851318359	1.763140559196491	1195.003173828125	-153.4972229003907	59.85171890258786	1211.205932617188	292.3962402343749	50.18676376342776	1226.011108398438	-214.3078918457032	266.7039794921875	1043.473876953125	212.482925415039	250.0260162353515	1030.277099609375	292.7528686523438	244.6556701660157	1065.612915039062	-130.3187713623047	218.5036163330078	1039.619995117188	-203.2069854736328	314.0396423339844	1027.822265625	-227.4194488525391	352.9138488769531	1020.845031738281	300.6829833984375	
1656	13.79166666666667	134.7938690185547	1551.097900390625	92.3662567138671	121.3667373657227	1544.733520507812	-61.09286880493172	27.46226501464842	1627.447509765625	101.9652786254882	5.010614871978765	1637.668701171875	-45.51436996459971	-119.0784378051758	1545.57666015625	27.85551071166981	-83.86329650878906	1388.45068359375	29.2059612274169	-56.98198699951174	1484.125610351562	197.0340881347655	-78.90304565429686	1506.74609375	-147.5238494873048	-190.4406585693359	1255.549194335938	31.41053962707509	-338.2617492675781	1452.798583984375	30.10346603393542	-536.6912231445312	1263.68359375	116.4895401000975	-545.0924072265625	1260.413452148438	-7.344238281250144	-383.2726745605469	1198.1318359375	174.3521575927733	-393.6740112304688	1182.275146484375	-72.74904632568371	-132.1414489746094	738.2550048828125	127.0922775268554	-95.16245269775389	814.1427001953125	-66.7229309082032	-148.8807678222657	787.1297607421875	240.7693634033202	-97.7091369628906	856.8267211914062	-176.0456695556641	-394.7365417480469	587.2294921875	-63.91978454589852	-159.9280242919922	366.27587890625	128.0114746093749	-419.85205078125	568.242919921875	-149.6751708984376	-185.231201171875	343.9344482421875	214.2338562011718	-289.0369262695312	425.7696533203125	-92.99118041992193	-0.4397573769092739	237.3532867431641	146.0576934814453	-493.1363830566406	587.8785400390625	-110.8824005126954	-254.510009765625	323.8746948242188	171.5792694091796	6.755383014678926	1185.693359375	235.7466888427734	1.728038907051105	1194.943725585938	-154.2093200683595	59.98934555053707	1211.317138671875	291.8623046874999	50.12908554077151	1225.791870117188	-214.9931030273438	266.8139038085938	1043.370849609375	212.4003448486328	250.0758666992187	1030.260864257812	292.7093200683594	244.6744689941407	1065.653930664062	-130.5216522216797	218.5397491455078	1039.48876953125	-203.3441619873047	314.076171875	1027.689208984375	-227.5088195800782	352.9828186035156	1020.812194824219	300.6593322753906	
1657	13.8	135.0104064941406	1551.60595703125	91.28870391845695	121.7434158325195	1545.191040039062	-62.24946212768563	27.58331871032714	1627.849487304688	100.7084503173827	5.288309097290044	1638.029174804688	-46.82461929321299	-118.6506652832031	1545.81103515625	26.57917976379384	-83.54855346679688	1388.72119140625	27.91331100463858	-56.40252685546877	1484.232788085938	195.7820739746093	-78.66718292236327	1506.745483398438	-148.9151763916016	-190.1079864501953	1255.743530273438	30.18684768676748	-337.7888488769531	1452.930297851562	29.79669761657702	-535.7476196289062	1263.755737304688	117.3574371337889	-544.7001342773438	1260.730712890625	-6.544721603393699	-382.3101501464844	1197.60888671875	173.9417724609374	-393.5247802734375	1182.953979492188	-72.92913818359386	-141.5841369628907	728.0449829101562	125.998191833496	-87.84219360351561	825.7235107421875	-67.17016601562507	-157.8811187744141	777.4550170898438	239.8246154785155	-91.12699890136716	866.6314697265625	-176.4799804687501	-387.428955078125	598.906494140625	-63.04569625854501	-166.7817535400391	354.9581298828125	127.5086822509765	-412.5775451660156	579.6654663085938	-148.7574462890626	-192.8583984375	333.8489074707031	213.7577819824218	-278.8450927734375	439.0475158691406	-93.00619506835943	-9.489038467407244	222.9732055664062	145.8331909179688	-486.1902160644531	598.4022827148438	-109.8497390747071	-261.8359375	314.8162536621094	171.0266876220703	6.948806285858126	1185.757446289062	235.2504577636718	1.785051584243793	1194.9013671875	-154.8207397460938	60.21761322021481	1211.439575195312	291.2970275878906	50.25405120849612	1225.60009765625	-215.732391357422	266.9548950195312	1043.240600585938	212.315673828125	250.1397552490234	1030.226196289062	292.6221618652344	244.7309722900391	1065.687255859375	-130.7202453613282	218.608154296875	1039.322631835938	-203.4700317382813	314.1361999511719	1027.54248046875	-227.612548828125	353.0552978515624	1020.752014160156	300.6463317871094	
